HIERARCHY
ROOT Hips
{
	OFFSET -0.001795 -0.223333 0.028219
	CHANNELS 6 Xposition Yposition Zposition Zrotation Yrotation Xrotation 
	JOINT LeftUpLeg
	{
		OFFSET 0.069520 -0.091406 -0.006815
		CHANNELS 3 Zrotation Yrotation Xrotation
		JOINT LeftLeg
		{
			OFFSET 0.034277 -0.375199 -0.004496
			CHANNELS 3 Zrotation Yrotation Xrotation
			JOINT LeftFoot
			{
				OFFSET -0.013596 -0.397961 -0.043693
				CHANNELS 3 Zrotation Yrotation Xrotation
				JOINT LeftToe
				{
					OFFSET 0.026358 -0.055791 0.119288
					CHANNELS 3 Zrotation Yrotation Xrotation
					End Site
					{
						OFFSET 0.000000 0.000000 0.000000
					}
				}
			}
		}
	}
	JOINT RightUpLeg
	{
		OFFSET -0.067670 -0.090522 -0.004320
		CHANNELS 3 Zrotation Yrotation Xrotation
		JOINT RightLeg
		{
			OFFSET -0.038290 -0.382569 -0.008850
			CHANNELS 3 Zrotation Yrotation Xrotation
			JOINT RightFoot
			{
				OFFSET 0.015774 -0.398415 -0.042312
				CHANNELS 3 Zrotation Yrotation Xrotation
				JOINT RightToe
				{
					OFFSET -0.025372 -0.048144 0.123348
					CHANNELS 3 Zrotation Yrotation Xrotation
					End Site
					{
						OFFSET 0.000000 0.000000 0.000000
					}
				}
			}
		}
	}
	JOINT Spine
	{
		OFFSET -0.002533 0.108963 -0.026696
		CHANNELS 3 Zrotation Yrotation Xrotation
		JOINT Spine1
		{
			OFFSET 0.005487 0.135180 0.001092
			CHANNELS 3 Zrotation Yrotation Xrotation
			JOINT Spine2
			{
				OFFSET 0.001457 0.052922 0.025425
				CHANNELS 3 Zrotation Yrotation Xrotation
				JOINT Neck
				{
					OFFSET -0.002778 0.213870 -0.042857
					CHANNELS 3 Zrotation Yrotation Xrotation
					JOINT Head
					{
						OFFSET 0.005152 0.064970 0.051349
						CHANNELS 3 Zrotation Yrotation Xrotation
						End Site
						{
							OFFSET 0.000000 0.000000 0.000000
						}
					}
				}
				JOINT LeftShoulder
				{
					OFFSET 0.078845 0.121749 -0.034090
					CHANNELS 3 Zrotation Yrotation Xrotation
					JOINT LeftArm
					{
						OFFSET 0.090977 0.030469 -0.008868
						CHANNELS 3 Zrotation Yrotation Xrotation
						JOINT LeftForeArm
						{
							OFFSET 0.259612 -0.012772 -0.027456
							CHANNELS 3 Zrotation Yrotation Xrotation
							JOINT LeftHand
							{
								OFFSET 0.249234 0.008986 -0.001171
								CHANNELS 3 Zrotation Yrotation Xrotation
								End Site
								{
									OFFSET 0.000000 0.000000 0.000000
								}
							}
						}
					}
				}
				JOINT RightShoulder
				{
					OFFSET -0.081759 0.118833 -0.038615
					CHANNELS 3 Zrotation Yrotation Xrotation
					JOINT RightArm
					{
						OFFSET -0.096012 0.032551 -0.009143
						CHANNELS 3 Zrotation Yrotation Xrotation
						JOINT RightForeArm
						{
							OFFSET -0.253742 -0.013329 -0.021401
							CHANNELS 3 Zrotation Yrotation Xrotation
							JOINT RightHand
							{
								OFFSET -0.255298 0.007772 -0.005559
								CHANNELS 3 Zrotation Yrotation Xrotation
								End Site
								{
									OFFSET 0.000000 0.000000 0.000000
								}
							}
						}
					}
				}
			}
		}
	}
}
MOTION
Frames: 5
Frame Time: 0.050000
0.000000 0.939966 0.000000 -1.663087 -18.418072 4.725851 13.958571 1.392267 -15.295868 -3.128699 0.463653 -1.773286 5.587481 12.029688 25.105581 0.000000 0.000000 0.000000 -4.470992 0.527143 -3.868812 7.585592 -0.449565 3.442549 -10.675907 -24.364642 8.232426 0.000000 0.000000 0.000000 -4.745896 0.647716 16.917572 3.875334 -0.918997 -19.891486 3.397030 9.532281 28.681854 -9.166308 7.037312 -23.622729 0.000000 0.000000 0.000000 -28.873505 -9.610731 5.327400 -45.285502 -24.899211 1.137959 -2.767447 -34.234800 2.807189 0.000000 0.000000 0.000000 20.649175 21.387680 10.434921 54.754213 23.256057 2.981293 -2.374806 31.363418 0.772724 0.000000 0.000000 0.000000 
-0.000143 0.939528 0.000534 -2.404221 -19.576064 5.344071 14.925974 1.603836 -14.656259 -3.670801 0.545955 -2.915543 4.699294 10.652091 24.348032 0.000000 0.000000 0.000000 -3.327635 0.499448 -4.122603 6.917710 -0.368149 2.698606 -10.973377 -24.968775 10.463377 0.000000 0.000000 0.000000 -4.270967 0.596612 16.956198 3.617306 -0.888560 -19.578453 4.110719 10.782221 28.660283 -12.383803 9.093107 -23.632176 0.000000 0.000000 0.000000 -29.390110 -8.205470 4.166700 -45.436656 -24.877973 1.202273 -2.959878 -33.293991 2.769687 0.000000 0.000000 0.000000 19.266748 20.785091 10.035613 57.034659 23.233201 3.273078 -4.529464 33.987067 0.323656 0.000000 0.000000 0.000000 
-0.000117 0.940385 0.001623 -1.974639 -18.211014 5.063629 14.628397 1.461683 -14.770616 -3.884941 0.569165 -1.681967 4.789359 10.855227 22.315744 0.000000 0.000000 0.000000 -3.603405 0.468689 -3.578336 6.640219 -0.377314 2.564083 -12.225994 -26.888685 11.383126 0.000000 0.000000 0.000000 -3.378120 0.358000 16.449701 1.949688 -0.473557 -19.013155 3.963475 10.345676 27.679135 -11.279680 8.548751 -22.207718 0.000000 0.000000 0.000000 -28.025360 -8.577022 4.229591 -45.389545 -24.058973 1.009022 -4.571495 -31.896936 3.040124 0.000000 0.000000 0.000000 19.957466 20.904307 10.268279 56.209615 23.133186 3.223611 -4.315652 32.198227 0.321949 0.000000 0.000000 0.000000 
-0.000023 0.941058 0.002928 -2.050416 -19.413027 5.509033 15.220448 1.629558 -14.473043 -4.460903 0.651174 -2.722574 4.757033 10.721586 23.792814 0.000000 0.000000 0.000000 -3.225432 0.498889 -4.165761 6.356306 -0.333966 2.516691 -13.396053 -28.567768 12.244101 0.000000 0.000000 0.000000 -4.476341 0.557508 15.624139 2.842188 -0.706134 -19.298435 4.155059 11.583240 28.433348 -12.307582 9.321896 -21.835108 0.000000 0.000000 0.000000 -27.446957 -8.344137 3.877124 -46.238035 -23.524930 0.880847 -4.078776 -31.910748 2.890946 0.000000 0.000000 0.000000 20.448439 21.275299 10.709834 55.426941 22.672817 2.837391 -3.987171 32.875897 0.435474 0.000000 0.000000 0.000000 
0.000053 0.941860 0.004404 -1.959108 -19.242225 5.502743 15.067734 1.605770 -14.664138 -4.077991 0.606382 -1.468108 4.420650 10.189116 22.396055 0.000000 0.000000 0.000000 -3.294141 0.495066 -4.075253 6.173414 -0.324045 2.064070 -13.050024 -28.076190 13.077873 0.000000 0.000000 0.000000 -4.415565 0.523715 15.272699 1.950900 -0.505302 -18.695781 4.396164 11.831985 27.797688 -12.083368 9.132937 -22.109198 0.000000 0.000000 0.000000 -25.990318 -8.100815 3.529361 -47.817121 -22.843071 0.878619 -3.835438 -31.902878 2.811757 0.000000 0.000000 0.000000 20.179579 20.476597 10.303534 55.915620 22.496125 2.876457 -3.097311 33.659999 0.723987 0.000000 0.000000 0.000000 
